# xmcd
#
# Track frame offsets:
#       150
#       31555
#       44175
#       57830
#       77677
#       102872
#       121970
#       135717
#       151420
#
# Disc length: 2184 seconds
#
# Revision: 1
# Processed by: cddbd v1.4PL0 Copyright (c) Steve Scherf et al.
# Submitted via: MusiCat 1.1
#
DISCID=6e088609
DTITLE=Vanusa - A Arte do Espetáculo - Ao Vivo
DYEAR=1900
DGENRE=
TTITLE0=Mensagem, Manhãs de Setembro, Paralelas
TTITLE1=Aprendendo a Jogar
TTITLE2=Um Dia de Domingo
TTITLE3=Yesterday, Eleonor Rigby, Day Tripper
TTITLE4=Mudanças, Maria Maria
TTITLE5=Bilhete
TTITLE6=Era Um Garoto Que Como Eu Ama os Beatles e os Rolling Stones
TTITLE7=Felicidade
TTITLE8=Súplica Cearense
EXTD=0\n\n\n
EXTT0=
EXTT1=
EXTT2=
EXTT3=
EXTT4=
EXTT5=
EXTT6=
EXTT7=
EXTT8=
PLAYORDER=
